# xmcd CD database file
#
# Track frame offsets:
#	187
#	50452
#	86982
#	129760
#
# Disc length: 2396 seconds
#
# Revision: 0
# Processed by: cddbd v1.5.2PL0 Copyright (c) Steve Scherf et al.
# Submitted via: CDex 1.70beta2
#
DISCID=2c095a04
DTITLE=Gato Barbieri - The Third World
DYEAR=1970
DGENRE=Jazz
TTITLE0=A) Introduction B)Cancion Del Llamero C)Tango
TTITLE1=Zelao
TTITLE2=Antonio Das Mortes
TTITLE3=A) Bachianas B)Haleo And The Wild Rose
EXTD=YEAR: 1970
EXTT0=
EXTT1=
EXTT2=
EXTT3=
PLAYORDER=
